<svg xmlns="http://www.w3.org/2000/svg" width="3488" height="1260" viewBox="0 0 3488 1260" version="1.1">
	
	<path d="M 291.248 293.762 L 253.997 294.024 254.248 619.262 L 254.500 944.500 515.466 944.210 C 718.246 943.984, 776.606 943.650, 777.211 942.710 C 777.640 942.044, 777.740 860.950, 777.434 762.500 C 777.128 664.050, 777.266 544.800, 777.740 497.500 C 778.214 450.200, 778.454 411.300, 778.274 411.056 C 778.093 410.811, 733.520 422.736, 679.222 437.556 L 580.500 464.500 580.248 662.952 C 580.109 772.101, 579.643 861.757, 579.214 862.186 C 578.383 863.017, 555.378 867.614, 522.500 873.520 C 511.500 875.496, 484.275 880.666, 462 885.010 C 411.066 894.942, 384.210 900, 382.405 900 C 381.202 900, 381 864.204, 381 651 C 381 478.398, 381.321 402, 382.046 402 C 382.621 402, 426.594 409.650, 479.764 419 C 532.934 428.350, 577.262 436, 578.270 436 C 579.279 436, 628.240 423.625, 687.072 408.500 C 745.905 393.375, 795.156 381, 796.520 381 L 799 381 799 662.383 C 799 929.531, 799.089 943.789, 800.750 944.211 C 801.712 944.456, 830.033 944.450, 863.684 944.198 L 924.867 943.739 925.184 619.119 C 925.358 440.579, 925.443 294.368, 925.373 294.206 C 925.208 293.826, 340.321 293.417, 291.248 293.762 M 1337 407.734 L 1326.500 408.084 1324.843 412.792 C 1323.931 415.381, 1319.122 428.525, 1314.156 442 C 1309.189 455.475, 1301.983 475.500, 1298.141 486.500 C 1294.299 497.500, 1286.588 519.100, 1281.005 534.500 C 1275.422 549.900, 1269.806 565.425, 1268.525 569 C 1264.035 581.527, 1252 616.790, 1252 617.416 C 1252 617.764, 1259.537 617.925, 1268.750 617.774 L 1285.500 617.500 1288.196 609.500 C 1289.679 605.100, 1293.295 594.525, 1296.232 586 L 1301.572 570.500 1342.561 570.239 L 1383.550 569.978 1387.859 582.739 C 1390.229 589.758, 1393.888 600.450, 1395.991 606.500 L 1399.814 617.500 1417.407 617.773 C 1427.083 617.923, 1435 617.901, 1435 617.723 C 1435 616.018, 1413.416 554.030, 1404.804 531 C 1398.737 514.775, 1391.100 493.850, 1387.833 484.500 C 1384.567 475.150, 1376.855 454, 1370.697 437.500 L 1359.500 407.500 1353.500 407.442 C 1350.200 407.410, 1342.775 407.541, 1337 407.734 M 1090.111 511.750 C 1090.256 568.813, 1090.564 616.063, 1090.795 616.750 C 1091.124 617.732, 1104.457 618, 1152.979 618 L 1214.743 618 1215.468 604.896 C 1215.876 597.514, 1215.806 591.406, 1215.307 590.907 C 1214.819 590.419, 1193.964 589.904, 1168.960 589.760 L 1123.500 589.500 1123.245 498.750 L 1122.989 408 1106.417 408 L 1089.845 408 1090.111 511.750 M 1327.014 492.196 C 1318.647 517.113, 1311.734 538.400, 1311.651 539.500 C 1311.503 541.455, 1312.191 541.506, 1342 541.743 C 1358.775 541.876, 1373.066 541.623, 1373.758 541.179 C 1374.708 540.569, 1372.232 532.211, 1363.613 506.936 C 1348.545 462.748, 1343.400 448.066, 1342.757 447.424 C 1342.465 447.132, 1335.380 467.279, 1327.014 492.196 M 1835.466 696.384 C 1795.120 702.969, 1771.724 732.794, 1777.950 769.705 C 1782.301 795.497, 1797.956 808.859, 1846.820 828.485 C 1883.672 843.286, 1891.015 849.285, 1890.990 864.566 C 1890.965 880.185, 1879.473 889.641, 1858.102 891.627 C 1840.553 893.258, 1806.312 884.507, 1791.163 874.519 C 1784.736 870.282, 1784.204 870.229, 1783.445 873.750 C 1783.119 875.263, 1780.610 883.237, 1777.869 891.471 C 1772.113 908.762, 1771.360 906.426, 1784.929 913.366 C 1838.049 940.530, 1911.330 929.831, 1930.439 892.120 C 1942.878 867.573, 1938.053 836.418, 1919.061 818.654 C 1908.215 808.509, 1895.563 801.856, 1865 790.225 C 1835.500 778.999, 1831.166 776.552, 1826.415 768.445 C 1818.868 755.567, 1824.209 741.164, 1838.594 735.604 C 1854.200 729.571, 1896.550 734.891, 1913.807 745.053 C 1918.007 747.526, 1918 747.527, 1918.003 744.250 C 1918.006 740.305, 1922.603 723.699, 1924.982 719.036 C 1928.040 713.041, 1927.782 712.670, 1917.072 707.632 C 1896.419 697.917, 1887.724 695.978, 1862.500 695.462 C 1849.797 695.202, 1840.838 695.508, 1835.466 696.384 M 1327 697.708 L 1305.500 698.045 1305.500 750.773 C 1305.500 779.773, 1305.612 831.071, 1305.750 864.770 L 1306 926.040 1327.250 925.770 L 1348.500 925.500 1348.761 884.250 L 1349.022 843 1368.499 843 L 1387.975 843 1391.611 850.250 C 1393.610 854.237, 1400.969 866.500, 1407.962 877.500 C 1414.956 888.500, 1424.391 903.688, 1428.929 911.250 C 1433.468 918.813, 1437.703 925.015, 1438.340 925.033 C 1444.768 925.218, 1487.477 924.857, 1487.717 924.616 C 1488.022 924.311, 1471.360 897.484, 1448.516 861.500 C 1442.580 852.150, 1436.660 843.350, 1435.362 841.945 C 1432.015 838.325, 1432.301 837.761, 1438.750 835.257 C 1453.529 829.517, 1468.454 813.202, 1473.845 796.893 C 1486.578 758.372, 1475.172 723.480, 1445 708.650 C 1424.106 698.380, 1403.881 696.505, 1327 697.708 M 1604.948 709.750 C 1602.628 716.763, 1596.026 734.650, 1590.278 749.500 C 1584.529 764.350, 1578.115 781.225, 1576.024 787 C 1573.933 792.775, 1569.230 805.061, 1565.572 814.301 C 1561.914 823.542, 1556.270 838.392, 1553.029 847.301 C 1546.257 865.916, 1534.303 897.348, 1527.759 913.750 L 1523.269 925 1545.885 924.985 L 1568.500 924.971 1575.284 906.735 C 1579.016 896.706, 1582.814 886.138, 1583.725 883.250 L 1585.382 878 1630.722 878 C 1666.135 878, 1676.142 878.274, 1676.424 879.250 C 1677.464 882.847, 1691.986 924.320, 1692.325 924.658 C 1692.945 925.278, 1738 925.662, 1737.997 925.047 C 1737.994 924.569, 1728.051 898.030, 1708.006 845 C 1704.784 836.475, 1699.584 823.200, 1696.452 815.500 C 1693.319 807.800, 1688.388 794.750, 1685.494 786.500 C 1680.205 771.420, 1673.917 754.710, 1659.432 717.250 L 1651.603 697 1630.384 697 L 1609.166 697 1604.948 709.750 M 2507.672 697.729 C 2507.412 698.153, 2507.448 749.688, 2507.753 812.250 L 2508.307 926 2528.594 926 C 2539.753 926, 2549.114 925.625, 2549.397 925.166 C 2549.681 924.708, 2549.984 888.391, 2550.070 844.462 C 2550.243 757.403, 2549.872 762.253, 2555.528 773 C 2558.153 777.989, 2569.767 795.988, 2577.500 807.050 C 2580.250 810.984, 2590.556 825.970, 2600.403 840.352 C 2610.249 854.733, 2621.313 870.325, 2624.990 875 C 2628.667 879.675, 2634.142 886.875, 2637.157 891 C 2655.175 915.653, 2662.214 924.854, 2663.289 925.158 C 2663.955 925.346, 2672.600 925.500, 2682.500 925.500 L 2700.500 925.500 2700.754 811.750 L 2701.009 698 2678.865 698 L 2656.721 698 2657.324 774.750 C 2657.656 816.962, 2658.242 852.850, 2658.625 854.500 C 2659.585 858.632, 2657.094 856.567, 2653.395 850.165 C 2646.371 838.010, 2626.539 809.408, 2588.450 756.500 C 2580.531 745.500, 2567.824 727.725, 2560.212 717 L 2546.372 697.500 2527.258 697.229 C 2516.746 697.079, 2507.932 697.304, 2507.672 697.729 M 3086.900 697.748 L 3067.300 698.041 3063.138 710.923 C 3060.849 718.007, 3056.468 730.261, 3053.402 738.152 C 3050.336 746.043, 3043.171 764.731, 3037.479 779.680 C 3031.788 794.629, 3024.351 813.754, 3020.953 822.180 C 3017.554 830.606, 3012.614 843.575, 3009.975 851 C 3007.336 858.425, 3001.715 873.500, 2997.484 884.500 C 2993.253 895.500, 2988.989 906.750, 2988.008 909.500 C 2987.027 912.250, 2985.281 916.862, 2984.127 919.750 L 2982.029 925 3004.355 925 L 3026.681 925 3033.443 907.392 C 3037.162 897.707, 3041.101 887.127, 3042.197 883.881 L 3044.190 877.980 3089.255 878.240 L 3134.319 878.500 3140.943 898 C 3144.586 908.725, 3148.452 919.300, 3149.534 921.500 L 3151.500 925.500 3173.750 925.769 C 3191.708 925.986, 3196 925.782, 3196 924.711 C 3196 923.191, 3177.047 871.671, 3168.516 850 C 3165.376 842.025, 3158.391 823.800, 3152.993 809.500 C 3147.596 795.200, 3138.245 771.125, 3132.215 756 C 3121.528 729.194, 3112.750 705.296, 3111.555 699.750 C 3111.101 697.646, 3110.437 697.054, 3108.731 697.228 C 3107.504 697.353, 3097.680 697.587, 3086.900 697.748 M 1084 716.487 L 1084 734.973 1117.250 735.237 L 1150.500 735.500 1150.755 830.900 L 1151.010 926.301 1160.755 925.656 C 1166.115 925.301, 1175.563 925.008, 1181.750 925.005 L 1193 925 1193 830 L 1193 735 1220.250 734.773 C 1245.229 734.565, 1255.429 734.389, 1258.750 734.106 C 1259.700 734.026, 1260 729.677, 1260 716 L 1260 698 1172 698 L 1084 698 1084 716.487 M 1971.654 706.250 C 1971.301 710.788, 1971.009 718.823, 1971.006 724.108 L 1971 733.715 1977.147 734.358 C 1980.527 734.711, 1995.377 735, 2010.147 735 L 2037 735 2037 830.604 L 2037 926.208 2058.250 925.485 C 2069.938 925.088, 2079.602 924.677, 2079.727 924.571 C 2079.851 924.466, 2080.076 881.882, 2080.227 829.940 L 2080.500 735.500 2113.500 735 L 2146.500 734.500 2146.773 716.250 L 2147.045 698 2059.671 698 L 1972.296 698 1971.654 706.250 M 2194 811.500 L 2194 925 2215 925 C 2231.143 925, 2235.996 924.711, 2235.981 923.750 C 2235.971 923.063, 2236.159 873.900, 2236.398 814.500 C 2236.638 755.100, 2236.585 704.587, 2236.281 702.250 L 2235.728 698 2214.864 698 L 2194 698 2194 811.500 M 2301 812.057 L 2301 926.126 2376.250 925.454 C 2417.637 925.084, 2451.725 924.568, 2452 924.308 C 2452.275 924.048, 2452.658 916.222, 2452.851 906.917 L 2453.202 890 2399.569 890 C 2352.115 890, 2345.869 889.822, 2345.344 888.454 C 2345.018 887.604, 2344.695 873.767, 2344.625 857.704 L 2344.500 828.500 2389 828 L 2433.500 827.500 2433.808 815 C 2433.978 808.125, 2433.833 800.138, 2433.486 797.250 L 2432.856 792 2389.035 792 C 2349.998 792, 2345.148 791.827, 2344.607 790.418 C 2344.273 789.548, 2344 776.788, 2344 762.063 L 2344 735.289 2350.750 734.652 C 2354.463 734.301, 2378.098 734.011, 2403.273 734.007 L 2449.046 734 2448.773 716.250 L 2448.500 698.500 2374.750 698.244 L 2301 697.987 2301 812.057 M 2764 811.920 L 2764 926 2797.750 925.975 C 2854.939 925.933, 2870.615 924.512, 2891.303 917.492 C 2936.333 902.211, 2960.209 861.722, 2957.636 805 C 2955.243 752.223, 2932.496 718.727, 2889.500 704.665 C 2872.525 699.114, 2868.531 698.775, 2814.250 698.289 L 2764 697.840 2764 811.920 M 1349.238 770.250 L 1349.500 806.500 1368.500 806.808 C 1408.128 807.451, 1422.507 803.469, 1430.395 789.666 C 1437.763 776.774, 1436.188 756.117, 1427.043 745.702 C 1418.875 736.399, 1408.023 734.018, 1373.738 734.008 L 1348.975 734 1349.238 770.250 M 2807.464 735.470 C 2806.795 737.732, 2805.926 886.643, 2806.571 888.325 C 2807.576 890.942, 2847.993 889.876, 2861.344 886.881 C 2892.630 879.861, 2906.777 863.804, 2911.423 830.040 C 2916.364 794.136, 2907.935 762.384, 2889.856 748.800 C 2876.811 738.998, 2866.392 735.913, 2844.500 735.373 C 2835.700 735.156, 2823.835 734.857, 2818.134 734.710 C 2811.659 734.542, 2807.654 734.827, 2807.464 735.470 M 1628.582 753.187 C 1628.360 753.909, 1627.663 756.710, 1627.034 759.411 C 1625.739 764.973, 1604.380 824.928, 1600.018 835.250 L 1597.165 842 1613.332 842.012 C 1622.225 842.019, 1636.475 842.272, 1645 842.576 C 1664.068 843.254, 1664.039 843.268, 1660.702 834.869 C 1659.310 831.366, 1655.640 821.300, 1652.545 812.500 C 1649.450 803.700, 1644.284 789.525, 1641.064 781 C 1637.844 772.475, 1634.204 762.678, 1632.975 759.229 C 1630.680 752.788, 1629.292 750.879, 1628.582 753.187 M 3086.265 758.750 C 3085.214 761.913, 3081.816 771.250, 3078.713 779.500 C 3070.743 800.695, 3057.966 836.980, 3057.316 840.265 L 3056.769 843.030 3088.761 842.972 C 3106.357 842.940, 3120.995 842.672, 3121.290 842.377 C 3121.960 841.707, 3118.438 831.310, 3113.552 819.535 C 3109.459 809.671, 3099.362 781.822, 3093.509 764.250 C 3091.447 758.063, 3089.405 753, 3088.969 753 C 3088.533 753, 3087.317 755.587, 3086.265 758.750" stroke="none" fill="#1f1f1f" fill-rule="evenodd"/>
</svg>