<svg xmlns="http://www.w3.org/2000/svg" width="3488" height="1260" viewBox="0 0 3488 1260" version="1.1">
	<rect x="0" y="0" width="100%" height="100%" fill="#faf9f7" />
	<path d="M 257.904 327.060 C 257.363 327.394, 257.098 458.806, 257.248 652.560 L 257.500 977.500 518.461 977.206 C 661.990 977.044, 779.665 976.669, 779.961 976.372 C 780.258 976.076, 780.533 862.133, 780.572 723.167 C 780.612 584.200, 781.019 461.542, 781.477 450.593 C 782.283 431.291, 782.251 430.703, 780.404 431.228 C 779.357 431.526, 771.975 433.807, 764 436.297 C 736.646 444.839, 709.489 452.922, 696 456.537 C 688.575 458.528, 670.800 463.464, 656.500 467.507 C 642.200 471.550, 620.825 477.388, 609 480.481 C 597.175 483.574, 586.487 486.522, 585.250 487.031 L 583 487.957 583 691.420 C 583 822.146, 582.652 895.097, 582.028 895.483 C 580.883 896.191, 571.081 898.106, 530.500 905.550 C 514 908.577, 484.525 914.179, 465 917.998 C 420.719 926.660, 387.043 933, 385.317 933 C 384.231 933, 384 884.459, 384 656 C 384 464.338, 384.321 379, 385.043 379 C 385.617 379, 404.999 382.159, 428.115 386.019 C 451.231 389.880, 480.718 394.610, 493.642 396.532 C 506.566 398.453, 534.996 402.989, 556.820 406.612 L 596.500 413.199 698.373 413.523 C 754.739 413.702, 800.638 414.238, 801.122 414.722 C 801.616 415.216, 802.106 537.764, 802.248 696.548 L 802.500 977.500 865 977.137 C 899.375 976.938, 927.581 976.707, 927.680 976.624 C 927.779 976.541, 928.004 830.342, 928.180 651.737 L 928.500 327 796 326.822 C 500.752 326.425, 258.760 326.532, 257.904 327.060 M 1337 407.734 L 1326.500 408.084 1324.843 412.792 C 1323.931 415.381, 1319.122 428.525, 1314.156 442 C 1309.189 455.475, 1301.982 475.500, 1298.140 486.500 C 1294.297 497.500, 1286.578 519.100, 1280.985 534.500 C 1269.383 566.446, 1252 616.078, 1252 617.257 C 1252 617.692, 1259.537 617.925, 1268.750 617.774 L 1285.500 617.500 1288.196 609.500 C 1289.679 605.100, 1293.295 594.525, 1296.232 586 L 1301.572 570.500 1342.561 570.239 L 1383.550 569.978 1387.859 582.739 C 1390.229 589.758, 1393.888 600.450, 1395.991 606.500 L 1399.814 617.500 1417.407 617.773 C 1427.083 617.923, 1435 617.901, 1435 617.723 C 1435 616.018, 1413.416 554.030, 1404.804 531 C 1398.737 514.775, 1391.100 493.850, 1387.833 484.500 C 1384.567 475.150, 1376.855 454, 1370.697 437.500 L 1359.500 407.500 1353.500 407.442 C 1350.200 407.410, 1342.775 407.541, 1337 407.734 M 1090.099 511.750 C 1090.225 568.813, 1090.528 616.063, 1090.771 616.750 C 1091.119 617.732, 1104.473 618, 1152.995 618 L 1214.777 618 1215.505 604.916 C 1215.926 597.348, 1215.850 591.450, 1215.327 590.927 C 1214.820 590.420, 1194.391 589.906, 1168.960 589.760 L 1123.500 589.500 1123.245 498.750 L 1122.989 408 1106.429 408 L 1089.869 408 1090.099 511.750 M 1341.472 449.250 C 1338.146 458.177, 1311.760 538.031, 1311.650 539.500 C 1311.503 541.455, 1312.191 541.506, 1342 541.743 C 1358.775 541.876, 1373.066 541.623, 1373.758 541.179 C 1374.708 540.570, 1372.184 532.083, 1363.424 506.436 C 1357.049 487.771, 1349.958 466.998, 1347.666 460.274 C 1343.682 448.580, 1342.503 446.482, 1341.472 449.250 M 1837.061 696.025 C 1796.340 701.687, 1771.665 732.445, 1777.950 769.705 C 1782.261 795.261, 1797.555 808.566, 1844.314 827.440 C 1884.048 843.478, 1891.016 849.020, 1890.990 864.566 C 1890.965 880.185, 1879.473 889.641, 1858.102 891.627 C 1840.553 893.258, 1806.312 884.507, 1791.163 874.519 C 1784.736 870.282, 1784.204 870.229, 1783.445 873.750 C 1783.119 875.263, 1780.610 883.237, 1777.869 891.471 C 1772.113 908.762, 1771.360 906.426, 1784.929 913.366 C 1826.905 934.832, 1884.518 933.238, 1915.500 909.754 C 1943.185 888.769, 1944.978 842.897, 1919.061 818.654 C 1908.215 808.509, 1895.563 801.856, 1865 790.225 C 1854.825 786.353, 1844.461 782.266, 1841.969 781.143 C 1818.687 770.649, 1815.943 747.046, 1836.811 736.772 C 1849.456 730.547, 1876.553 731.758, 1900 739.595 C 1905.775 741.526, 1911.988 743.982, 1913.807 745.053 C 1918.007 747.526, 1918 747.527, 1918.001 744.250 C 1918.002 740.475, 1922.779 723.354, 1925.102 718.801 C 1928.025 713.071, 1927.713 712.637, 1917.072 707.632 C 1896.376 697.897, 1887.708 695.969, 1862.500 695.490 C 1852.050 695.292, 1840.602 695.532, 1837.061 696.025 M 1323 697.775 L 1305.500 698.049 1305.500 752.275 C 1305.500 782.099, 1305.612 833.396, 1305.750 866.270 L 1306 926.040 1327.250 925.770 L 1348.500 925.500 1348.761 884.250 L 1349.022 843 1368.499 843 L 1387.975 843 1391.611 850.250 C 1393.610 854.237, 1400.969 866.500, 1407.962 877.500 C 1414.956 888.500, 1424.391 903.688, 1428.929 911.250 C 1433.468 918.813, 1437.703 925.015, 1438.340 925.033 C 1444.768 925.218, 1487.477 924.857, 1487.717 924.616 C 1488.022 924.311, 1471.360 897.484, 1448.516 861.500 C 1442.580 852.150, 1436.660 843.350, 1435.362 841.945 C 1432.015 838.325, 1432.301 837.761, 1438.750 835.257 C 1453.529 829.517, 1468.454 813.202, 1473.845 796.893 C 1483.726 767, 1478.872 737.715, 1461.084 719.910 C 1443.533 702.342, 1416.661 696.370, 1359 697.226 C 1348.825 697.377, 1332.625 697.624, 1323 697.775 M 1608.547 698.250 C 1604.179 712.262, 1599.389 725.933, 1593.743 740.500 C 1583.489 766.962, 1582.627 769.224, 1577.116 784.166 C 1574.343 791.682, 1569.115 805.317, 1565.498 814.467 C 1561.881 823.617, 1556.270 838.392, 1553.029 847.301 C 1546.257 865.916, 1534.303 897.348, 1527.759 913.750 L 1523.269 925 1545.885 924.985 L 1568.500 924.971 1575.284 906.735 C 1579.016 896.706, 1582.814 886.138, 1583.725 883.250 L 1585.382 878 1630.722 878 C 1666.135 878, 1676.142 878.274, 1676.424 879.250 C 1677.637 883.446, 1692.016 924.349, 1692.420 924.754 C 1693.140 925.473, 1738.001 925.818, 1737.997 925.103 C 1737.994 924.576, 1728.494 899.201, 1708.006 845 C 1704.784 836.475, 1699.615 823.257, 1696.520 815.627 C 1693.424 807.997, 1688.203 794.147, 1684.917 784.848 C 1681.632 775.549, 1674.654 756.817, 1669.413 743.221 C 1664.171 729.624, 1658.035 713.663, 1655.778 707.750 L 1651.674 697 1630.306 697 C 1614.085 697, 1608.843 697.301, 1608.547 698.250 M 2507.650 697.757 C 2507.393 698.173, 2507.436 749.698, 2507.747 812.257 L 2508.311 926 2528.597 926 C 2539.754 926, 2549.108 925.634, 2549.384 925.187 C 2549.661 924.740, 2549.981 888.448, 2550.097 844.537 C 2550.323 758.543, 2550.051 762.504, 2555.072 772.199 C 2558.053 777.953, 2570.013 796.623, 2576.571 805.760 C 2579.832 810.303, 2589.700 824.648, 2598.500 837.637 C 2607.300 850.626, 2618.365 866.259, 2623.089 872.377 C 2627.813 878.495, 2636.084 889.554, 2641.468 896.952 C 2657.079 918.405, 2662.033 924.806, 2663.307 925.174 C 2663.963 925.363, 2672.600 925.514, 2682.500 925.509 L 2700.500 925.500 2700.754 811.750 L 2701.009 698 2678.872 698 L 2656.736 698 2657.318 774.750 C 2657.638 816.962, 2658.220 852.850, 2658.611 854.500 C 2659.594 858.646, 2657.079 856.550, 2653.410 850.165 C 2646.646 838.395, 2623.501 805.008, 2589.517 758 C 2581.764 747.275, 2571.659 733.100, 2567.063 726.500 C 2562.466 719.900, 2555.801 710.563, 2552.252 705.750 L 2545.799 697 2526.958 697 C 2516.596 697, 2507.908 697.341, 2507.650 697.757 M 3086.877 697.748 L 3067.254 698.041 3064.030 708.271 C 3060.480 719.532, 3054.248 736.565, 3047.481 753.500 C 3045.064 759.550, 3039.431 774.175, 3034.965 786 C 3030.498 797.825, 3024.128 814.250, 3020.808 822.500 C 3017.489 830.750, 3012.615 843.575, 3009.976 851 C 3005.732 862.940, 2991.032 901.974, 2984.555 918.500 L 2982.204 924.500 2992.852 925 C 2998.708 925.275, 3008.726 925.362, 3015.112 925.193 L 3026.725 924.887 3033.465 907.335 C 3037.171 897.681, 3041.101 887.127, 3042.197 883.881 L 3044.190 877.980 3089.255 878.240 L 3134.319 878.500 3140.943 898 C 3144.586 908.725, 3148.452 919.300, 3149.534 921.500 L 3151.500 925.500 3173.750 925.769 C 3190.734 925.975, 3196 925.750, 3196 924.819 C 3196 923.118, 3183.619 889.233, 3172.316 860 C 3167.105 846.525, 3158.418 823.800, 3153.011 809.500 C 3147.604 795.200, 3138.245 771.125, 3132.215 756 C 3121.528 729.194, 3112.750 705.296, 3111.555 699.750 C 3111.101 697.646, 3110.437 697.054, 3108.731 697.228 C 3107.504 697.353, 3097.670 697.587, 3086.877 697.748 M 1084 716.487 L 1084 734.973 1117.250 735.237 L 1150.500 735.500 1150.755 830.696 L 1151.010 925.891 1170.255 925.421 C 1180.840 925.163, 1190.287 924.962, 1191.250 924.976 C 1192.905 924.999, 1193 919.819, 1193 830 L 1193 735 1220.750 734.773 C 1236.013 734.648, 1250.975 734.536, 1254 734.523 L 1259.500 734.500 1259.773 716.250 L 1260.045 698 1172.023 698 L 1084 698 1084 716.487 M 1971.522 708.250 C 1970.524 723.507, 1971.139 734.476, 1973 734.598 C 1973.825 734.651, 1988.563 734.764, 2005.750 734.848 L 2037 735 2037 830.616 L 2037 926.233 2058.250 925.505 C 2069.938 925.105, 2079.588 924.702, 2079.696 924.609 C 2079.804 924.517, 2080.029 881.929, 2080.196 829.970 L 2080.500 735.500 2113.500 735 L 2146.500 734.500 2146.773 716.250 L 2147.045 698 2059.619 698 L 1972.192 698 1971.522 708.250 M 2194 811.520 L 2194 925.040 2214.991 924.770 L 2235.982 924.500 2236.408 815.500 C 2236.642 755.550, 2236.585 704.587, 2236.281 702.250 L 2235.728 698 2214.864 698 L 2194 698 2194 811.520 M 2301 812.055 L 2301 926.123 2376.250 925.462 C 2417.637 925.098, 2451.725 924.583, 2452 924.318 C 2452.275 924.052, 2452.658 916.222, 2452.851 906.917 L 2453.202 890 2399.569 890 C 2352.115 890, 2345.869 889.822, 2345.344 888.454 C 2345.018 887.604, 2344.695 873.767, 2344.625 857.704 L 2344.500 828.500 2389 828 L 2433.500 827.500 2433.803 814 C 2433.970 806.575, 2433.830 798.587, 2433.492 796.250 L 2432.877 792 2389.046 792 C 2349.999 792, 2345.148 791.827, 2344.607 790.418 C 2344.273 789.548, 2344 776.789, 2344 762.065 L 2344 735.293 2351.651 734.647 C 2355.859 734.291, 2379.494 734, 2404.174 734 L 2449.046 734 2448.773 716.250 L 2448.500 698.500 2374.750 698.244 L 2301 697.987 2301 812.055 M 2764 812.063 L 2764 926.287 2810.750 925.692 C 2836.463 925.366, 2860.875 924.604, 2865 923.999 C 2908.238 917.663, 2938.918 894.489, 2950.434 859.467 C 2961.538 825.695, 2960.157 783.335, 2947.040 755.344 C 2935.059 729.777, 2916.536 713.453, 2889.500 704.634 C 2872.597 699.121, 2868.499 698.775, 2814.250 698.289 L 2764 697.840 2764 812.063 M 1349.238 770.250 L 1349.500 806.500 1368 806.801 C 1408.018 807.453, 1422.503 803.475, 1430.395 789.666 C 1437.763 776.774, 1436.188 756.117, 1427.043 745.702 C 1418.883 736.408, 1408.015 734.048, 1373.238 734.020 L 1348.975 734 1349.238 770.250 M 2807.452 735.500 C 2806.797 737.748, 2805.941 886.684, 2806.574 888.332 C 2807.668 891.184, 2849.535 889.775, 2863.046 886.431 C 2882.331 881.658, 2892.950 874.748, 2901.620 861.328 C 2910.993 846.821, 2915.148 817.520, 2911.406 792.328 C 2906.498 759.294, 2891.522 742.583, 2861.500 736.641 C 2852.035 734.768, 2807.936 733.837, 2807.452 735.500 M 1628.622 753.083 C 1628.378 753.862, 1627.654 756.750, 1627.013 759.500 C 1625.705 765.116, 1604.432 824.811, 1600.019 835.250 L 1597.165 842 1619.332 842.099 C 1631.525 842.153, 1645.775 842.369, 1651 842.579 C 1663.572 843.083, 1663.871 842.845, 1660.702 834.869 C 1659.310 831.366, 1655.645 821.300, 1652.556 812.500 C 1649.468 803.700, 1644.496 790.200, 1641.507 782.500 C 1638.519 774.800, 1634.954 765.169, 1633.585 761.098 C 1630.930 753.202, 1629.372 750.687, 1628.622 753.083 M 3086.985 756.750 C 3086.342 758.813, 3083.835 765.675, 3081.413 772 C 3074.902 789.010, 3057.933 837.071, 3057.308 840.272 L 3056.767 843.044 3088.864 842.957 C 3106.518 842.910, 3121.163 842.546, 3121.408 842.149 C 3121.653 841.752, 3119.614 835.593, 3116.875 828.463 C 3107.750 804.708, 3099.322 781.650, 3094.499 767.250 C 3091.875 759.413, 3089.374 753, 3088.941 753 C 3088.509 753, 3087.629 754.688, 3086.985 756.750" stroke="none" fill="#1f1f1f" fill-rule="evenodd"/>
</svg>