<svg xmlns="http://www.w3.org/2000/svg" width="753" height="750" viewBox="0 0 753 750" version="1.1">
	<rect x="0" y="0" width="100%" height="100%" fill="#F4EFE6" />
	<path d="M 35.027 277.750 C 35.029 409.063, 35.315 555.313, 35.663 602.750 L 36.295 689 294.898 688.965 C 506.566 688.936, 553.930 688.691, 555.870 687.615 L 558.240 686.301 558.370 421.105 C 558.500 156.367, 558.497 155.910, 556.500 156.438 C 555.400 156.729, 511.075 168.843, 458 183.359 L 361.500 209.750 361.248 408.857 L 360.995 607.963 358.748 608.455 C 355.469 609.172, 311.577 617.378, 289.500 621.402 C 279.050 623.306, 249.800 628.899, 224.500 633.831 C 171.707 644.121, 163.277 645.610, 162.455 644.789 C 161.635 643.968, 161.582 148.085, 162.402 147.265 C 162.766 146.901, 207.289 154.376, 261.342 163.876 L 359.621 181.149 466.892 153.574 C 525.891 138.408, 575.477 126, 577.082 126 L 580 126 580 405.918 C 580 559.873, 580.273 686.548, 580.607 687.418 C 581.152 688.837, 587.635 689, 643.604 689 L 705.994 689 706.247 364.417 C 706.386 185.896, 706.312 39.646, 706.083 39.417 C 705.854 39.187, 554.772 39, 370.346 39 L 35.024 39 35.027 277.750" stroke="none" fill="#1A1714" fill-rule="evenodd"/>
</svg>
